<svg xmlns="http://www.w3.org/2000/svg" viewBox="0 0 640 512"><defs><style> *{fill:#f16821;} </style></defs>

  <path d="M529.9 80.5c.2.1.3.2.5.3l9.3 6.3 8.9 6.8c1.5 1.2 3 2.3 4.4 3.5l4.2 3.7 4.2 3.7c1.4 1.2 2.8 2.4 4.1 3.8l8 7.9c2.6 2.6 5.1 5.5 7.6 8.2 2.5 2.7 4.9 5.6 7.2 8.5 2.3 2.9 4.7 5.8 6.8 8.8 15.4 20.6 27.6 43.4 35.6 67.5L575.6 7.8c-14.9 24.5-30.2 48.7-45.7 72.7z"/>

  <path d="M587.3 148.3c-9.4-10.8-19.3-21.2-30-30.7-2.6-2.4-5.5-4.6-8.2-6.9l-4.1-3.4c-1.4-1.1-2.9-2.1-4.3-3.2l-8.5-6.4-8.9-5.9c-.1-.1-.3-.2-.4-.3-8.6 13.4-17.5 26.7-26.2 40.1l-27.1 40.8-27.5 40.5c-9.3 13.4-18.4 27-27.8 40.3-18.6 26.7-37.3 53.2-56.7 79.3L634 221l-.4-1.5c-12.7-25.8-28-49.8-46.3-71.2z"/>

  <path d="M575.3 8.1l58.4 212.7L357.9 332 361 41.6 575.3 8.1m59.1 213.1L575.8 7.3 360.4 41l-3.2 292"/>

  <path d="M404.5 39.4c14.8.9 29.5 2.9 44 6.3 14.5 3.3 28.7 8.1 42.4 14 3.4 1.5 6.9 2.9 10.2 4.6l10 5.1c3.3 1.7 6.5 3.7 9.7 5.6l4.6 2.7c16.4-23.4 33-46.8 50.1-69.8v-.1L362.9 40.9c13.8-1.8 27.7-2.1 41.6-1.5z"/>
  <path d="M409.4 250c8.8-13.7 17.9-27.3 26.8-41l27.1-40.8 27.5-40.5c9-13.1 18-26.3 27.2-39.3-10.3-6.5-20.9-12.4-32-17.4-12.9-6-26.3-11.2-40-15.4-13.8-4.1-27.8-7.4-42.1-9.7-14.2-2.3-28.6-3.7-43.2-4.4l-3.2 291.1c16.8-28 34.3-55.4 51.9-82.6z"/>

  <g>
  <path d="M294.1 38.7l-49 .8-24.5.4-12.3.2c-4.2.1-8 0-11.8.8-7.6 1.3-14.7 4.8-20.7 9.7-5.8 5-10.5 11.4-13 18.6-1.4 3.5-2 7.3-2.5 11.1-.2 3.7-.1 7.8-.1 11.9l.2 24.5v3.7l-3.8.2c-18.5.8-36.9 4-54.1 10.3-17.2 6.3-33 16-46.1 28.6-13.1 12.6-23.5 27.9-30 44.8-6.6 16.9-9.4 35.2-9.8 53.5-.4 18.3 2 36.6 8.4 53.4 6.3 16.9 16.9 31.8 30.1 44.1 13.2 12.3 29.1 21.5 46.3 27 17.2 5.5 35.6 7.6 54 7.3l5.7-.1v5.7c-.1 20.8-.5 42.2-.4 62.5.5 18.7 15.8 35.9 34.4 38.7 2.3.5 4.6.5 7 .7l7.9.1 15.7.1 31.4.3 62.9.5 126 .9c10.4 0 21.2.3 31.2.1 9.6-.5 19.1-4.4 26.2-10.9 7.3-6.4 12.3-15.4 13.8-24.9.5-2.4.5-4.8.7-7.3l.1-7.8c.1-5.2 0-10.4-.1-15.6-.3-10.4-.5-20.9-1.9-31-.7-5-2-9.8-3.9-14.5-1.7-4.7-4.2-8.6-7.6-12.1-6.8-6.9-16.3-11.2-26.1-12.5-9.8-1.3-19.8 1-29.2 5-9.4 4-18.2 9.6-26.9 15.3L396 400l-26.3 17.2c-8.8 5.7-17.8 11.3-27.4 15.9-18.8 9.3-41.7 14-62.2 6.5-5.1-1.9-9.9-4.5-14.1-7.9-4.2-3.5-7.7-7.8-10.3-12.5-5.3-9.4-7.4-21-3.8-31.4 3.5-10.5 12.5-18.2 22.2-22.3 9.8-4.3 20.3-6.2 30.7-7.7 10.4-1.4 20.7-3.2 30.4-7 9.6-3.7 18.6-10.1 22.9-19.6l1.1.5c-4.3 10-13.7 16.7-23.4 20.5-9.8 4-20.3 5.9-30.7 7.5-10.3 1.7-20.6 3.7-30 7.9-9.4 4.1-17.6 11.4-20.7 21.1-3.2 9.6-1.1 20.4 3.9 29.1 2.5 4.4 5.8 8.3 9.7 11.5 3.9 3.1 8.5 5.5 13.3 7.3 9.6 3.4 20.1 4 30.2 2.6 10.2-1.4 19.9-5 29.2-9.5 9.3-4.6 18.1-10.2 26.8-16l26.1-17.5 26.1-17.5c8.7-5.8 17.7-11.7 27.5-16 9.8-4.4 20.9-7 32-5.7 11 1.3 21.7 6 29.7 14 4 3.9 7.2 9 9.1 14.2 2 5 3.5 10.4 4.3 15.8 1.6 10.7 1.8 21.2 2.2 31.7.2 5.3.3 10.6.3 15.8v7.9c-.1 2.8-.2 5.6-.7 8.4-1.7 11.1-7.4 21.6-15.8 29.1-8.3 7.6-19.3 12.4-30.6 13-10.9.3-21.1.1-31.7.2l-125.7.1-62.9.1-31.4.1h-23.6c-2.8-.1-5.8-.2-8.6-.7-23.2-3.3-42.3-24.3-43.3-47.9-.4-21.6-.2-42.1-.3-63.2l5.7 5.6c-19.3.5-39-1.5-57.8-7.4-18.8-5.9-36.4-15.9-50.9-29.3C32.5 350.8 20.9 334 14 315.4c-7-18.6-9.5-38.5-9-57.9s3.9-39 11.3-57.2c7.4-18.2 18.9-34.8 33.3-48.1 14.3-13.4 31.5-23.6 49.9-29.9 18.4-6.5 37.8-9.1 57-9.5l-3.8 3.9.4-24.5c.1-4.1.1-8.1.4-12.6.6-4.3 1.5-8.7 3.2-12.7 6.3-16.4 21.7-28.7 38.9-30.9 4.3-.7 8.6-.5 12.6-.4l12.3.3 24.5.6 49 1.1.1 1.1z"/><path d="M85.8 332.5c-14.6-14.1-24.1-33.2-28-53.4-3.8-20.1-4.1-41.4 2.1-61.8 6.2-20.3 19.4-38.6 36.8-50.9 17.4-12.7 38.9-18.5 59.6-18.9l5.3-.1-.1 5.1-1.8 103.4c-.5 34.5-1.1 68.9-2.3 103.4l-.1 1.6-1.5-.1c-12.9-.8-25.8-2.9-37.7-7.7-12-4.6-23.1-11.5-32.3-20.6zm.8-.8c8.9 9.1 19.9 16.1 31.9 20.2 12 4.1 24.7 5.9 37.4 5.8l-1.6 1.5c-1-34.5-1.4-68.9-1.7-103.4l-1.1-103.4 5.2 5c-19.3 1-38 7.2-53.1 18.5-7.5 5.7-14.3 12.4-19.9 19.9-5.6 7.6-9.9 16-13.2 24.9-6.3 17.9-8.7 37.8-7 57.4.9 9.8 2.9 19.5 6.8 28.7 3.7 9.3 9.4 17.7 16.3 24.9z"/>
</g>
</svg>
